<?xml version="1.0" encoding="utf-8"?>
<!-- Generator: Adobe Illustrator 24.1.0, SVG Export Plug-In . SVG Version: 6.00 Build 0)  -->
<svg version="1.1" id="Layer_1" xmlns="http://www.w3.org/2000/svg" xmlns:xlink="http://www.w3.org/1999/xlink" x="0px" y="0px"
	 viewBox="0 0 1194.97 691.39" style="enable-background:new 0 0 1194.97 691.39;" xml:space="preserve">
<g>
	<path d="M1105.11,84.93c5.8,5.93-4.55,14.04,3.63,21.14c3.4,2.95,6.97,3.07,9.99,5.29c6.38,4.67,5.76-3,7.59-5.12
		c3.66-4.23,7.11-6.36,12.35-3.34c0.68,0.39,1.11,1.36,1.79,1.56c16.94,4.89,16.93,4.87,6.63,19.63c-0.65,0.93-1.73,2.47-1.41,3.01
		c8.09,13.57-1.78,13.62-10.7,14.15c-3.29,0.2-5.01,1.16-5.49,4.79c-1.39,10.36-7.59,10.17-15.52,6.97
		c-4.78-1.93-9.77-3.92-15.23-2.72c-2.74,0.6-6.97,0.2-8.01,1.84c-7.16,11.34-19.67,14.18-30.04,20.53
		c-4.97,3.05-7.23,5.32-11.48-0.18c-2.37-3.07-6.03-5.26-9.35-7.47c-6.8-4.51-11.32-6.79-13.33,5.3c-1.24,7.46-4.84,13.47-1.6,21.95
		c2.29,5.99-4.7,9.38-10.74,10c-3.01,0.31-6.37-1.38-9.01,2.93c8.91,5.24,16.97,4.89,23.24-3.15c6.81-8.75,14.52-9.61,22.57-3.31
		c4.09,3.2,5.77-0.59,8.48-0.97c4.25-0.59,11.26,1.08,10.44,2.56c-5.54,9.92,5.09,15.7,4.88,23.83c-0.04,1.51-1.25,4.35-1.55,4.31
		c-10.05-1.64-12.09,9.7-19.98,12.03c-9.06,2.68-17.08-1.43-25.54-2.13c-5.75-0.48-12.27-3.08-7.82-12c1.59-3.19-0.39-6.2-5.71-8.09
		c0.37,8.21-1.74,13.4-11.46,15.28c-5.93,1.15-10.2,9.36-18.4,3.71c-2.9-2-6.49-0.04-7.15,3.94c-0.81,4.87,3.44,3.58,5.71,3.71
		c5.98,0.35,11.15,10.24,18.26,1.11c1.69-2.17,5.68,1.17,4.89,4.37c-1.93,7.82-2.55,15.82-4.01,23.64
		c-0.95,5.07-7.28,7.01-11.86,9.57c-2.76,1.54-5.23,3.59-8.69,6.01c9.69,4.36,11.74,9.27,1.37,13.87c-3.78,1.68-5.76,3.56-5.61,7.85
		c0.09,2.61-2.15,5.16-4.29,5.23c-11.15,0.35-19.45,11.14-31.29,7.55c0,1.46-0.3,2.59,0.05,2.83c3.85,2.78,11.58-0.66,12.51,4.96
		c1.1,6.63-0.79,13.8-1.74,20.69c-0.18,1.28-2.88,3.42-3.04,3.31c-8.7-6.48-17.57,5.26-26.17-0.29c-1.58-1.02-2.86-2.59-5.31-1.66
		c-6.08,2.32-10.37-0.93-12.89-5.76c-2.66-5.1,0.84-9.09,4.21-12.78c1.5-1.64,4.32-3.52,2.06-5.96c-2.16-2.33-4.31-1-7.16,0.6
		c-4.75,2.67-13.02,1.71-7.67,11.09c0.18,0.31,0.17,0.84,0.04,1.18c-4.45,11.61-16.91,4.54-24.4,10.23
		c-3.13,2.38-8.63-1.48-9.03-6.87c-0.32-4.29-1.28-8.27-4.87-10.48c-3.94-2.42-9.35-7.84-10.39,2.85c-0.52,5.38-4.06,8.96-9.86,8.37
		c-5.25-0.54-5.97-4.67-5.52-9.04c0.79-7.78-4.91-6.25-8.82-5.56c-14.22,2.51-28.66,4.49-42.42,8.65
		c-17.33,5.25-34.76,9.95-52.43,13.73c-6.21,1.33-8.88,2.87-7.18,10.13c7.63,32.72-6.3,58.39-27.68,81.51
		c-29.56,31.97-68.3,49.86-105.95,69.52c-15.23,7.95-29.64,17.53-45.15,24.83c-5.89,2.77-12.35,4.94-18.54,7.48
		c-41.24,16.87-79.85,39.85-122.79,52.75c-21.16,6.36-41.86,14.41-64.11,16.65c-2.27,0.23-4.53,1.56-6.6,2.73
		c-12,6.78-24.72,11.83-38.2,14.38c-24.5,4.63-48.48,12.85-72.88,16.09c-39.31,5.22-76.34,18.58-114.67,27.03
		c-19.51,4.3-38.62,10.12-58.56,13.03c-12.18,1.78-24.06,0.75-36.08,0.82c-4.16,0.02-8.61-1.07-9.8-5.44
		c-1.29-4.71-0.68-9.92,3.73-13.16c29.37-21.55,53.1-49.67,85.1-68.63c18.7-11.08,35.52-26.95,50.22-43.91
		c3.76-4.34,7.88-8.39,12.9-10.75c24.41-11.43,44.95-29.31,69.89-40.19c14.8-6.45,26.85-18.94,40.95-27.35
		c33.36-19.9,65.95-41.16,98.79-61.76c46.94-29.45,94.43-58.23,140.23-89.6c31.07-21.29,66.08-33.24,103.12-41.03
		c20.77-4.37,39.48-1.62,58.98,3.38c12.72,3.26,21.65,12.19,31.42,19.68c5.11,3.92,7.88,2.99,12.3-0.23
		c9.78-7.14,13.52-18.31,17.28-28.45c4.07-10.98,8.62-11.67,17.15-6.26c1.3,0.82,2.88,1.2,4.78,1.97
		c3.39-5.77,3.89-10.66-1.41-15.86c-4.35-4.27-6.72-9.94-7.56-16.13c-0.34-2.51-0.22-7.74-3.62-5.74
		c-8.43,4.97-17.87-1.87-25.72,3.38c-2.6,1.74-5.06,2.79-7.69,0.88c-3.51-2.55-3.05-6.28-2.11-9.89c1.61-6.12,7.68-9.23,10.24-14.9
		c-4.21-2.91-11.73-4.06-6.87-12.07c0.99-1.63,1.11-2.88-1.11-3.43c-12.67-3.13-8.16-9.24-2.52-15.28c1.98-2.12,1.75-3.95,1.1-6.5
		c-2.02-7.94,0.27-12.93,9.54-11.37c2.48,0.42,3.63,0.27,4.39-2.16c1.06-3.42-1.67-2.59-3.29-3.29c-8.66-3.78-12.53-9.82-5.02-17.41
		c4.58-4.63,0.44-7.09-0.36-10.47c-1.09-4.61-0.99-9.14,3.05-12.06c4.31-3.12,7.43,0.44,10.47,3.06c1.79,1.54,3.26,3.53,6.11,1.48
		c4.08-2.94,9.16-2.99,12.3,0.28c4.9,5.1,9.23-0.69,9.47-1.74c2.67-11.81,10.06-15.1,21.36-15c3.13,0.03,6.53-2.59,9.61,0.31
		c3.07,2.89,2.84,6.46,0.93,9.95c-2.47,4.5-5.04,8.94-8.34,14.78c12.34-1.73,22.2-11.97,23.52-17.41
		c2.38-9.78,6.99-24.39-7.16-32.37c-3.24-1.82-5.06-6.04-3.34-8.17c4.97-6.15,3.52-12.93,3.91-19.65c0.15-2.48,1.76-5.47,4.43-4.68
		c6.6,1.95,13.7,2.22,19.87,4.16c6.55,2.05,1.86,13.03,10.44,18.18c9.08,5.45,1.19,12.84-4.13,18.52c-1.97,2.11-4.92,5.99-1.13,8.24
		c3.29,1.95,5.96-1.13,6.72-4.71c2.64-12.4,12.7-9.57,21.16-10.13c-8.1-12.84-1.99-28.82,12.79-34.74c2.43-0.97,4.14-3.6,6.42-5.09
		c2.82-1.84,8.53-2.5,8.52-0.27c-0.05,11.26,23.44,11.72,12.37,27.46c-0.36,0.52,0.71,2.19,1.31,3.21
		c5.8,9.69,0.59,13.86-8.09,16.51c-2.27,0.69-4.38,1.92-6.79,3c1.44,2.96,2.82,4.07,6.29,3.44c11.97-2.17,11.73,0.02,11.85,11.8
		c0.11,9.79-2.12,18.11-5.62,26.61c3.11,1.88,6.23-0.76,6.49-1.72c3.35-12.06,14.28-15.78,23.06-21.97
		c3.43-2.41,6.91-4.32,9.04-0.08c3.61,7.18,6.98,3.01,9.82,0.23c3.53-3.44,4.82-8.38,0.1-11.46c-9.04-5.92-16.87-11.3-4.91-21.75
		c0.57-0.5-0.62-2.84-0.77-4.35c-0.53-5.34,16.82-24.44,22.13-24.53c3.81-0.06,4.27,2.8,5.27,5.47c3.15,8.38,7.4,9.42,16.01,5.22
		c6.57-3.21,12.54-10.41,21.71-7.51c3.5,1.11,4.17-2.97,5.81-4.96c4.62-5.55,8.71-11.59,13.71-16.77c8.2-8.49,17.58-8.03,27.19-2.18
		c7.26,4.41,11.45,12.09,18.01,17.72c3.66-4.51,2.01-8.81,1.44-13.02c-0.81-5.98-1.77-11.95,0.32-17.91
		c0.95-2.69,1.46-5.64,5.34-5.24c2.73,0.29,4.66,1.95,4.96,4.48c0.74,6.18,2.09,11.73,8.75,14.31c0.85,0.33,1.93,2.33,1.64,2.98
		c-5.1,11.25,9.37,20.8,0.22,33.96c11.13-8.21,12.09-9.88,12.05-20.93c-0.05-14.47-0.55-28.94-0.37-43.4
		c0.05-4.08-0.35-9.98,5.45-10.68c5.56-0.67,4.94,5.21,6.44,8.61c0.47,1.07,0.34,3.39,0.62,3.41c19.34,1.58,6.45,19.63,13.95,27.94
		c3.26,3.61,4.06,2.89,6.7,1.61c8.62-4.2,16.89-9.29,25.05-14.08c11.87-6.97,24.24-7.27,36.81-8.55c3.69-0.37,8.7-1.23,9.15,4.85
		c0.4,5.5-1.91,9.85-7.75,10.21c-5.23,0.32-11.12-1.49-7.93,7.49c0.36,1.02-1.08,2.98-2.1,4.14c-5.65,6.45-11.64,5.57-17.72,0.56
		c-1.76,9.34-7.38,9.78-13.59,4.87c-4.3-3.41-6.91-2.88-10.01,0.8c0.04,2.41,2.05,1.84,3.31,2.18c4.76,1.31,11.66,0.09,11.94,7.39
		c0.25,6.49-2.43,11.35-10.49,11.81c-7.3,0.41-0.76,4.55-0.94,6.81c-0.34,4.33,1.29,9.52-2.33,12.46c-3.98,3.22-7.48-0.89-10.49-3.3
		c-6.4-5.13-15.11,0.86-21.32-4.67c-0.65-4.5-1.3-9.01-1.95-13.56c-1.44,0.39-2.36,0.37-2.9,0.82c-4.3,3.59-8.49,7.32-12.79,10.91
		c-9.44,7.9-9.46,7.87-5.06,19.51C1095.3,81.05,1096.87,81.33,1105.11,84.93z M846.99,112.13c-3.71,0.78-7.91-2.3-13.46,3.46
		c13.7-1.63,12.71,11.13,19.06,16.21c8.27-10.32-2.87-13.78-5.97-20.06c8.07-0.58,2.62-5.27,2.42-8.22
		c-0.51-7.48-6.21-1.55-9.17-3.29c-2.5-1.47-3.05,1.24-3.18,3.3c-0.31,4.65,2.89,4.84,6.26,5.1
		C844.97,108.79,846.79,109.63,846.99,112.13z M832.58,163.46c-0.17,2.78-0.83,5.65-0.37,8.32c0.42,2.47-5.12,6.84,1.15,7.08
		c3.3,0.12,8.3,4.11,10.28-0.79c1.38-3.41,0.15-8.05-4.82-9.47c-2.81-0.8-5.14-2.12-6.39-4.9c-0.29-7.91,5.73-8.19,11.18-9.52
		c2.82-0.69,7.66-0.7,6.54-5.03c-0.7-2.69-4.76-3.54-8.23-3.73c-4.51-0.24-8.15,3.76-12.77,2.19c0.48-4.17,7.91-3.23,6.52-8.71
		c-2.19-2.63-7.24,0.68-8.12-3.7c-0.87-4.33,2.84-6.29,5.84-8.19c4.7-2.96,9.78-5.82-0.32-7.89c-4.75-0.97-4.82-3.84-3.2-7.03
		c1.67-3.29,3.66-6.26,0.91-10.98c-6.49,17.22-11.96,33.76-10.46,52.65c3.6-2.56,6.4-4.55,9.21-6.53c0.23,6.2-6.75,9.36-6.49,16.87
		C826.24,162.26,829.4,163.39,832.58,163.46z M886.2,245.25c6.92,12.27,7.45,12.23,23.98-2.2c-3.44-1.46-7.91,3.08-10-1.27
		c-3.18-6.62,4.76-9.24,6.13-14.41c-8.31-0.32-8.31-0.32-10.74-9.32c-2.75,2.83,0.62,9.95-5.31,9.23c-4.09-0.5,3.03-5.43-1.72-7.76
		c-1.72,3.31-3.48,6.71-5.25,10.11c11.55,3.22,0.75,10.81,3.05,15.78c-8.32,0.29-10.53,8.66-16.3,12.43
		c-3.3,2.15-10.02,4.34-7.43,8.99c2.4,4.32,8.74,4.79,14.1,2.17c2.49-1.22,5.19-2.19,7.9-2.77c8.52-1.84,10.23-5.16,3.21-11.46
		C885.1,252.32,883.43,248.98,886.2,245.25z M971.89,276.59c1.56-6.94-2.99-9.99-7.2-12.47c-9.44,13-13.99,28.01-19.99,43.2
		c10.25-3.4,15.24-12.87,23.13-18.57c0.32,3.54,2.67,4.43,4.61,2c6.36-7.95,15.69-11.86,24.66-17.69
		c-7.56-1.98-13.23-3.03-17.11,4.48C977.48,282.39,974.83,275.39,971.89,276.59z M855.84,263.84c9.26-7.03,18.58-14,25.91-24.09
		c-5.95-0.41-7.34,6.42-13.31,6.16c2.65-5.2,4.8-9.42,6.94-13.64c3.22-5.17,6.44-10.35,9.66-15.52c3.01-6.96,10.12-8.75,15.75-12.33
		c7.63-4.85,7.66-4.66,3.96-12.1c-1-2,0.6-3.71,1.33-5.55c1.03-2.6,4.72-4.93,0.78-9.1c-5.89,8.63-4.87,22.76-21.29,24.61
		c11.27-16.65,8.6-41.08,35.03-44.23c-1.84-3.48-3.45-2.12-4.75-2.34c-1.9-0.32-5.05-0.35-5.43-1.36c-1.8-4.67,3.08-5.61,5.38-7.97
		c1.46-1.5,2.25-2.01,0.2-4.29c-2.3-2.56-4.19-4.62-13.03-7.03c4.61,13.4-5.13,24.19-8.35,36.65c1.3-7.42,0.57-13.89-4.96-20.39
		c-1.13,2.35-1.95,3.64-2.38,5.05c-1.56,5.08,6.78,11.09-3.37,16.21c-4.65,2.34,5.05,9.98,3.88,16.49
		c-0.62,3.42-1.42,6.18-4.93,7.44c-0.42-4.97-0.84-9.94-1.25-14.9c-3.25-8.07-8.19-10.13-15.35-4.31c-0.35-0.41-0.7-0.81-1.05-1.22
		c2.93-3.66,8.79-4.74,10.26-12.33c-20.91,12.59-39.02,25.83-53.62,42.41c-3.72-2.02,0.44-6.02-3.73-7.16
		c-1.06,3.43-0.33,7.43-3.6,9.94c2.24-7.97-0.24-12.86-8.74-14.82c-6.41-1.48-6.69-6.14-4-11.2c1.02-1.91,4.28-2.85,2.65-5.83
		c-4.32-7.88,0.19-9.92,6.89-10.82c2.95-0.4,5.9-1.8,4.65-5.34c-0.93-2.64-3.72-4.96-6.76-3.16c-6.84,4.05-14.37,2.83-21.68,2.74
		c0.03,4.05,3.23,4.11,4.81,5.74c2.72,2.81,4.39,5.93,2.76,9.71c-1.52,3.51-4.89,3.44-8.22,3.61c-17,0.9-26.03,13.84-20.25,32.63
		c-1.54-17.62,13.23-13.16,19.83-18.96c2.7-2.38,6.2-2.29,8.42,0.92c2.24,3.23-1.69,4.75-2.58,7.14
		c-3.01,8.17-15.93,14.61-4.64,25.56c0.83,0.81,0.3,4.39-0.8,5.57c-5.37,5.74-8.28,13.72-15.79,17.46
		c1.15-7.73,8.7-11.86,10.68-17.73c-16.02-5.56,1.37-12.39-1.7-18.68c-2.34,3.58-8.47-1.56-9.53,5.42
		c-1.01,6.67-2.72,13.26-3.45,19.96c-0.43,3.99-1.86,9.05,4.29,10.7c-4.36,6.1-6.38,12.59-3.52,21.13c2.15-3.15,3.63-5.44,5.23-7.63
		c12.68-17.36,21.19-37.75,37.96-52.13c-3.43,12.28-13.58,20.3-19.72,30.91c-18.37,31.74-39.43,61.23-71.52,80.97
		c-3.38,2.08-6.16,5.11-9.26,7.65c-2.77,2.27-1.77,5.08-1.07,7.73c0.57,2.16,2.61,3.96,4.32,2.17c3.7-3.9,9.7-0.41,13.01-4.65
		c1.94-0.22,3.88-0.44,5.82-0.66c26.12-11.26,53.44-19.86,78.47-33.51c17.52-9.55,35.16-19.5,45.17-38.16L855.84,263.84z
		 M817.64,315.08c-4.76-1.55-5.98-9.53-13.85-6.01c-21.25,9.49-42.9,18.1-64.36,27.13c-1.54,0.65-3.33,1.51-2.82,4.68
		c26.12-7.64,50.86-18.59,77.56-22.72c1.2-0.19,2.1-2.25,3.13-3.46c8.11-2.3,7.9-7.89,6.7-14.17
		C810.35,301.38,816.37,309.09,817.64,315.08z M984.24,157.29c-3.51-4.53-6.92-8.28-13.69-4.91c-4.98,2.48-0.57,5.43-0.08,6.27
		c3.91,6.7,7.72-1.73,11.88-0.56c0.55,0.15,1.38-0.69,2.08-1.07c7.26,8.59-5.58,9.9-6.37,15.36c3.49,2.65,5.88,0.73,8.43-0.36
		c17.56-7.52,26.84-21.96,33.07-39.07c1.22-3.34,2.6-7.3,7.02-7.28c6.19,0.02,1.33,6.72,4.21,8.92c12.04-8.51,1.6-15.5-0.72-22.95
		c1.7-0.76,2.98-0.05,4.34,0.99c2.9,2.22,2.98,9.46,7.94,6.89c3.91-2.02-0.13-6.31-1.54-9.45c-0.75-1.68-0.31-2.96,1.39-3.94
		c2.34-1.35,4.88-1.67,6.74,0.14c6.03,5.89,12.51,16.81,14.15-2.53c0.22-2.57,3.76-2.4,6.21-2.43c2.02-0.03,4.34-0.25,4.25-2.93
		c-0.08-2.4-2.22-3.45-4.28-3.31c-6.73,0.48-6.06-4.85-6.35-8.74c-6.26,1.89-3.37,12.04-11.38,10.96
		c-7.17-0.97-0.86-8.19-5.81-13.38c-3.6,12.45-11.68,17.89-23.29,17.69c1.46,5.11,7.95,5.22,8.01,10.44
		c-3.61,1.3-5.46-4.8-9.39-2.45c-1.58,4.93,3.54,17.84-9.61,7.76c-2.04,8.08-3.9,15.73-5.97,23.32c-0.25,0.93-1.75,2.28-2.53,2.19
		c-7.46-0.87-8.64,3.22-9.19,9.53C993.35,157.32,988.41,157.47,984.24,157.29z M229.37,517.6c-14.2-3.42-22.98,7.84-33.9,12.93
		c-8.15,3.8-22.33,7.03-8.88,18.49c-28.38-9.07-39.56,16.98-58.63,29.88c8.67,3.97,12.99,10.54,17.04,17.37
		c-1.74-0.48-2.95-1.46-3.99-2.58c-11.35-12.25-15.52-12.53-28.02-1.4c-6.28,5.59-11.42,13.33-18.66,16.85
		c-32.89,15.99-55.29,44.94-83.9,66.11c-2.43,1.8-4.07,4.01-3.21,7.17c0.97,3.54,4.03,3.5,6.85,3.46
		c9.62-0.16,19.19,0.09,28.88-0.67c25.96-2.03,50.06-11.23,74.88-17.56c20.61-5.26,41.61-9.05,61.72-16.22
		c10.43-3.72,21.55-6.83,14.21-21.29c9.94,0.99-1.31,17.12,12.7,16.04c8.49-0.66,16.79-1.66,24.91-4.16
		c5.38-1.66,10.72-3.44,16.13-4.98c7.13-2.02,9.65-6.21,7.74-13.59c-3.11-12.02-5.74-24.16-8.57-36.25
		c8.14,11.79,9.76,25.44,11.86,38.73c1.09,6.9,3.86,7.63,9.45,6.81c17.57-2.57,34.71-6.44,51.13-13.58c7.12-3.1,8.61-7.4,7.16-14.25
		c-0.57-2.7-3.65-5.29-1.05-8.56c8.73,16.28,8.86,16.81,27.88,12.19c25.01-6.06,49.44-14.11,73.48-23.34
		c5.99-2.3,9.36-5.38,8.22-12.48c-1.48-9.21,3.71-18.08,1.07-27.5c5.02,6.84,4.7,13.91,2.12,20.95c-1.6,4.37,4.26,7.98,0.9,12.34
		c4.47,1.78,7.67-1.42,11.12-3.08c9.42-4.52,19.09-8.72,27.88-14.27c12.86-8.11,20.15-20.56,23.64-35.22
		c2.75-11.53-1.69-23.09,0.35-34.73c1.68,6.87,3.2,13.81,3.31,20.78c0.19,11.16,1.21,22.89-7.83,31.72
		c-2.59,2.52-4.99,6.05-3.37,8.15c3.18,4.12,5.85,0.05,8.61-2.15c1.3-1.04,3.95-0.23,5.53-1.09c15.5-8.51,37.23-10.49,37.08-35.65
		c1.06,13.24,4.55,15.68,14.96,8.02c9.61-7.08,22.86-11.78,24.56-26.78c0.3,3.43,0.59,6.87,0.98,11.41
		c6.9-5.01,14.97-3.68,20.86-5.99c12.87-5.06,25.08-12.91,32.56-25.7c3.54-6.05,6.13-13.68,15.78-8.5c-1.85,2.2-2.68,5.56-7.48,5.19
		c-4.51-0.34-5.12,3.2-4.04,7.58c27.22-13.11,44.21-34.11,52.67-61.63c0.78,3.09,1.89,7.53,3.13,12.43
		c25.07-30.54,24.6-74.2-1.96-105.93c-17.85-21.32-59.35-36.12-79.8-27.59c22.54,19.57,22.54,19.57,24.87,31.5
		c-1.58-2.21-2.42-3.12-2.95-4.18c-11.04-22.07-36.1-32.72-60.24-20.87c-9.51,4.67-19.82,11.77-28.41,13.2
		c-13.83,2.31-24.64,8.67-36.29,14.35c-3.67,1.79-9.61,3.2-9.22,8.25c0.36,4.68,6.94,2.88,9.81,5.65c0.37,0.36,0.44,1.02,1.23,2.98
		c-12.41-5.49-22.89-5.01-33.26,3.52c-9.24,7.61-19.82,13.76-30.32,19.62c-7.32,4.08-4.2,6.52,1.2,10.1
		c-9.97-3.43-17.39,0.15-24.65,4.8c-15.24,9.76-30.72,19.16-45.77,29.2c-16.17,10.79-15.77,16.51,1.18,27.05
		c1.62,1.01,3.38,1.81,6.37,3.39c-9.19,1.54-13.6-3.84-17.19-8.68c-5.9-7.95-12.11-7.81-19.78-3.39
		c-10.8,6.22-21.97,11.81-32.58,18.32c-10.14,6.23-20.44,12.48-28.37,22.25c9.52,6.94,18.67,13.6,20.25,25.86
		c-3.07-3.2-5.29-7.04-8.03-10.46c-9.19-11.47-15.53-13.77-28.38-7.24c-16.45,8.36-31.15,19.7-45.92,30.76
		c-2.19,1.64-1.33,3.38-0.79,5.24C229.91,516.98,229.64,517.29,229.37,517.6z M881.04,308.27c-13.53-20.31,15.03-8.19,14.07-19.55
		c-0.1-1.15,4.18-3.76,7.26-2.53c2.16,0.86,2.15,3.07,2.18,5.12c0.08,5.95,4.39,5.82,7.13,3.35c4.01-3.61,8.53-0.73,12.46-2.3
		c-3.39-13.35-3.4-13.31-14.39-16.1c-1.05-0.27-2.2-1.29-2.74-2.27c-4.44-8.1-10.13-5.2-16.08-2.13
		c-5.65,2.92-16.48,5.79-16.36,8.26c0.69,14-9.93,12.41-21.27,14.83c8.2,1.44,11.65,3.73,10.72,9.03c-0.89,5.07-5.77,3.28-8.89,4.34
		c-1.8,0.61-3.97,0.05-5.95,0.21c-2.64,0.21-4.61,1.4-4.74,4.34c-0.16,3.75,2.51,3.34,4.91,3.13c7.39-0.63,16.25,3.63,20.07-7.7
		C871.67,301.66,876.41,307.45,881.04,308.27z M1021.38,152.59c11.79-2.72,21.01-6.16,30.39-6.69c12.41-0.7,16.93-9.17,22.09-17.82
		c2.96-4.95-0.04-10.29,1.26-15.38c0.43-1.71,3.46-4.61-0.74-5.54c-2.96-0.66-5.34,0.24-5.59,4.23c-0.54,8.45-6.58,10.1-13.59,10.25
		c-1.81,0.04-3.52-1.33-5.42,0.74C1041,131.97,1032,141.34,1021.38,152.59z M1112.23,119.76c-4.88,11.75-14.56,18.35-24.23,25.52
		c11.36-3.63,22.1-1.1,34.4,3.65c-7.83-12.21-7.83-12.21,17.07-13.97c-8.68-4.4-6.17-8.29-0.62-12.4c4.13-3.07,9.68-5.06,11.33-12.1
		c-7.9-0.02-10.62,8.86-17.53,7.57c-3.28-2.9,3.12-6.06-0.09-9.23c-3.58,3.04-4.05,7.31-6.07,10.69
		C1121.53,127.76,1114.57,128,1112.23,119.76z M761.05,188.54c8.7-6.21,14.7-15.72,27.05-12.35c1.63,0.45,3.1-1.04,3.3-2.77
		c0.31-2.74-1.28-4.86-3.7-5.47c-4.23-1.06-6.76-2.79-4.6-7.43c1.86-4,4.83-6.38,9.55-5c2.09,0.61,5.23,2.97,5.16-1.16
		c-0.09-5.83,5.62-9.36,5.79-15.12c-13.71,0.48-13.66,0.51-18.33,10.23c-1.22,2.55-3.04,5.38-6.13,4.96
		c-4.47-0.61,1.44-6.13-3.95-7.63C768.19,159.83,771.9,176.52,761.05,188.54z M1003.07,167.91c-11.72,6.34-19.62,17.13-32.79,18.42
		c-0.86,0.08-2.4,1.56-2.28,2.07c3.16,13.25-8.56,10.22-14.84,13.27c8.78,3.95,17.36,9.03,20.51-6.04c0.59-2.82,4.9-5.95,8.92-3.43
		c3.65,2.28,1.49,5.52,0.4,8.55c-1.23,3.43-4.93,6.38-2.2,11.49C995.41,201.09,1000.69,185.92,1003.07,167.91z M711.98,133.76
		c-3.15,4.36,0.09,7.68,2.25,10.66c2.84,3.91,4.54,6.74-1.71,8.71c-2.17,0.68-4.99,1.94-3.6,5.06c1.74,3.93,4.39,1.66,6.96,0.61
		c5.54-2.26,12.4-5.83,13.18,4.2c0.36,4.62,1.85,6.13,5.3,5.35c2.81-0.64,7.94,2.28,8.21-3.91c0.22-5.03,6.83-8.53,3.56-14.3
		c-1-1.77-2.74-0.78-4.21-0.11c-7.54,3.44-9.84,1.09-7.45-6.67c0.71-2.32,0.99-5.17-1.33-6.58c-3.1-1.89-3.88,1.51-5.23,3.18
		c-3.11,3.82-5.94,3.34-8.77-0.29C717.21,137.21,715.82,134.07,711.98,133.76z M1067.09,202.95c-7.6,1-10.26,2.51-12.55,4.77
		c-3.62,3.58-7,9.33-12.81,6.35c-4.99-2.55-0.85-8.35-1.02-13.02c-15.89,9.6-18.88,17.51-11.96,30.95c2.43-4,3.39-9.65,9.51-9.29
		c5.13,0.3,6.09,4.42,6.63,8.52c0.38,2.9,1.75,4.45,4.74,3.65c2.61-0.7,2.52-2.67,1.69-4.71c-3.12-7.65,3.1-6.78,6.86-6.76
		c3.32,0.02,6.6,2.76,11.65-0.87C1063.18,218.14,1048.29,215.14,1067.09,202.95z M982.51,101.46c1.16-0.09,2.5,0.16,3.46-0.32
		c21.53-10.78,21.48-10.66,40.99-4.62c3.45,1.07,7.26-0.32,9.69-3.5c1.7-2.22,2.93-4.78,4.61-7.01c2.67-3.54,6.26-5.22,10.55-3.4
		c5.41,2.3-0.56,6.33,1.21,9.62c1.17-1.29,2.84-2.29,3.15-3.62c0.81-3.44,6.59-5.55,2.61-10.31c-3.42-4.08-6.65-2.85-10.25-0.42
		c-0.86,0.58-2.31,0.51-3.45,0.38C1020.35,75.45,1001.11,88.17,982.51,101.46z M982.01,109.13c-18.33,0.65-30.23,13.77-44.51,22.05
		c-2.02,1.17-1.53,3.36-0.15,5.2c1.08,1.44,2.73,2.57,3.85,1.09c2.43-3.2,6.69-2.74,9.41-6.18c5.84-7.38,16.95-2.85,23.98-8.74
		c0.1-0.08,1.88,2.65,3.2,3.09c5.67,1.89,9.55-2.6,14.14-4.48c2.55-1.05,2.28-3.41,0.47-4.7
		C988.89,113.96,988.7,106.57,982.01,109.13z M747.15,342.61c1.68,0.13,2.88,0.49,3.97,0.26c4.31-0.9,8.67-1.67,12.84-3.04
		c29.06-9.5,58.46-16.42,89.42-13.6c6.48,0.59,12.53-0.89,16.29-6.92C827.05,317.59,786.41,325.06,747.15,342.61z M884.21,87.37
		c-4.1,0-5.72,0.26-7.22-0.05c-3.1-0.65-7.82,2.37-8.94-2.91c-0.91-4.32,2.49-6.11,6.05-7.62c2.7-1.14,6.53-1.78,5.39-7.36
		c-9.65,3.72-13.4-0.51-11.12-12.51c-6.28,11.11-6.28,11.11-15.54,9.39c0.23,4.85,6.46,7.57,4.65,13.05
		c-2.52,7.64-7.88-2.57-12.76,3.08c8.71,3.85,15.19,9.4,17.08,19.39C867.22,94.46,876.93,95.75,884.21,87.37z M932.04,78.34
		c-0.89,5.66,5.93,5.6,7.27,9.9c1.34,4.29,2.89,7.91-3.53,8.53c-2.39,0.23-5.37-4.5-6.98-0.38c-1.71,4.37,3.86,3.91,5.84,5.97
		c2.63,2.71,5,5.67,8.01,9.12c3.85-8.39,13.85-10.3,17.82-18.14c-3.83-3.07-7.48,4.42-9.94-0.66c-1.93-3.99,1.67-6.36,4.59-8.66
		c1.9-1.5,4.77-2.77,4.08-5.86c-3.81-2.52-7.54,5.57-10.61-0.73c-1.69-3.46,2.4-7.79-1.49-11.07
		C941.69,73.68,935.45,78.66,932.04,78.34z M933.61,190.37c9.2,1.2,16.14,2.85,22.88,5.55c2.47,0.99,5.82,0.87,7.37-2.15
		c1.22-2.37-0.81-3.7-2.67-4.42c-3.05-1.19-6.83-2.11-4.7-6.42c2-4.04,5.92-5.06,10.31-4.01c3.22,0.77,5.98,4.73,9.85,1.4
		c1.07-3.01-2.18-3.84-3.02-5.84c-4.12-9.84-6.46-10.34-13.93-2.43c-2.18,2.31-4.51,4.16-6.75,0.87c-2.03-2.97-4.04-1.23-3.89,0.24
		C950.11,183.27,941.44,185.1,933.61,190.37z M700.09,197.23c11.25,6.46,20.67-8.09,30.03,0.63c2.39-5.01,6.06-6.11,11.53-5.18
		c1.34,0.23,0.83-4.99-0.22-7.51c-0.86-2.05-2.77-6.34-3.48-5.4c-9.43,12.46-11.29-2.31-16.4-5.01c-1.34,4.28,4.73,8.62-0.46,11.31
		c-3.88,2.01-6.03-2.92-9-4.67c-1.91-1.13-3.56-3.68-6.55-0.38C710.41,187.6,711.77,194,700.09,197.23z M793.51,64.7
		c-2.73,6.25,6.53,12.39,1.85,15.71c-8.66,6.14-2.44,7.6,1.67,10.27c3.08,2,3.8,4.77,3.81,8.18c0.01,2.51,2.96,4.03,4.07,3.14
		c4.99-4,9.54-8.57,14.07-13.11c0.49-0.49,0.23-2.5-0.38-3.11c-0.6-0.61-2.37-0.83-3.15-0.39c-8.06,4.67-7.86,0.48-6.34-5.63
		c0.93-3.76,2.21-7.76-2.04-11.22C797.73,86.14,799.04,66.21,793.51,64.7z M739.41,217.93c2.92-5.67,7.08-8.37,12.91-8.07
		c2.01,0.11,4.08-0.59,3.61-3.46c-0.31-1.88-1.94-3.3-3.29-2.64c-7,3.4-13.25-13.86-20.52-0.7c-0.23,0.41-2.27-0.14-3.46-0.31
		c-8.61-1.23-13.31,5.45-19.77,8.54c10.6,0.03,10.6,0.03,14.16,13.83c4.1-2.17,1.99-6.44,3.34-9.48
		C730.67,205.98,735.27,206.24,739.41,217.93z M884.2,111.65c-6.21-0.76-10.12,9.7-17.67,2.22c4.82,10.56-0.98,16.22-6.61,22.49
		c-2.3,2.57-9.12,7.73-0.36,10.38c3.62,1.1,8.63,0.26,12.89,0.03c4.3-0.24,7.66-3.85,2.65-8.1c-8.41-7.12-3.03-8.26,3.53-8
		c3.85,0.16,6.58-2.6,4.28-3.93C872.24,120.54,882.17,116.84,884.2,111.65z M869.43,285.21c-2.23-4.36-10.89,1.62-10.54-6.53
		c0.09-1.97,3.52-4.52-0.44-5.66c-3.01-0.87-5.62,1.39-6.66,4.04c-1.28,3.29-1.92,6.91-2.35,10.45c-0.5,4.1-1.1,8.53-5.07,10.19
		c-4.82,2.03-0.56-7.42-7.05-5.48c1.23,7.1,1.5,14.36-2.8,20.88c-0.43,0.66-0.14,2.61,0.4,2.91c0.88,0.49,3.24,0.26,3.26,0.07
		c1.96-12.94,13.29-10.85,22.11-12.57c-1.54-5.17-10.29-1.79-8.34-8.78c1.76-6.29,6.49-5.83,11.63-5.02
		C866.55,290.19,868.95,288.69,869.43,285.21z M928.23,280.08c0.45,18.8-0.83,20.4-13.13,17.46c0.66,7.14,8.93,10.8,7.63,18.89
		c4-10.95,17.12-10.09,22.6-18.56c-3.18-2.4-8.77,1.86-8.8-2.48c-0.06-7.98,9.76-6.45,13.84-11.44c-2.88-2.03-4.89-8.29-8.84-1.88
		C936.69,289.96,932.66,286.89,928.23,280.08z M872.44,309.92c-1.94,3.85,2.39,5.23,2.31,7.67c-0.48,13.9,9.26,3.77,13.7,5.95
		c0.51-4.41,15.82-0.56,6-11.07c-3.11-3.33,1.37-5.29,3.56-7.37c1.08-1.03,4.85-1.76,3.4-2.18c-8.24-2.33,0.11-8.63-3.53-13.25
		c-3.23,7.94-4.51,18.46-15.77,7.91c-0.83,6.21,7.05,9.97,0.67,15.32C877.37,317.45,876.02,310,872.44,309.92z M926.06,259.17
		c8.68,11.1,23.15-4.12,31.32,11.99c0.96-10.11,2.87-16.45,11.49-9.25c1.55,1.3,2.89,1.18,2.61-1.31c-0.89-7.91,7.7-4.57,11-9.37
		C962.76,250.42,944.62,253.7,926.06,259.17z M1004.96,69.06c3.2-2.63,6.79-5.56,10.34-8.54c1.78-1.49,4.22-2.83,1.82-5.68
		c-4.2,4.26-5.97-6.49-9.59-1.84c-8.4,10.8-15.99,22.15-21.58,35.92c12.29-2.04,17.91-13.25,29.1-13.8
		C1012.69,70.53,1007.37,74.66,1004.96,69.06z M971.27,238.09c1.51-3.56-0.51-10.11,6.99-7.88c1.93,0.57,4.22,0.12,4.79-2.31
		c0.61-2.57-1.8-3.1-3.41-4.16c-7.23-4.74-25.69-3.46-31.49,2.65c-3.31,3.49-3.62,8.29-0.94,12.07c1.66,2.34,6.33,1.97,7.31-0.56
		C960.16,223.47,965.57,232.44,971.27,238.09z M948.14,161.05c-12.36,8.6-24.72,17.2-37.14,25.84c6.45,5.06,11.84,1.23,17.59,0.27
		C942.3,184.89,945.83,173.95,948.14,161.05z M996.77,201.75c5.62-3.95,10.82-7.04,17.52-5.81c2.15,0.4,4.12-0.93,4.81-2.87
		c1.2-3.35-1.47-3.7-3.86-4.38c-6.47-1.83-4.14-5.55-1.66-9.04c2.02-2.85,4.28-5.55,7.35-9.5c-18.22,5.09-4.8-8.78-11.05-13.9
		C1004.43,171.67,1006.03,188.24,996.77,201.75z M963.42,159.26c-1.25-4.66-9.42-2.44-7.54-8.07c1.66-4.95,6.59-5.05,11.21-3.8
		c0.38,0.1,0.78,0.17,1.17,0.25c2.67,0.57,4.81-0.29,5.93-2.76c2.01-4.4-3.18-3.53-3.9-5.04c-3.56-7.4-11.41-3.05-16.02-7.42
		c-2.16,4.07,2.22,10.15-0.64,10.51c-10.45,1.32-5.72,10.74-11.79,16.63C950.49,156.19,956.35,161.95,963.42,159.26z
		 M1098.86,127.72c-3.75-3.3-9.25,0.73-10.22-4.21c-0.95-4.79,3.93-6.32,6.98-8.65c2.58-1.96,7.62-0.62,7.84-5.83
		c-1.81-4.36-11.21,2.28-9.65-6.56c0.77-4.32,7-6.47,5.59-13.05c-8.62,5.58-8.87,15.82-15.31,21.58
		c-6.22,5.57-4.17,13.55-1.85,18.46C1083.71,132.57,1092.85,132.08,1098.86,127.72z M918.96,325.76c0.34,4.58,0.01,8.5-3.71,11.94
		c-2.36,2.18-8.29,5.49-3.25,9.39c4.96,3.84,4.92-3.02,6.79-5.27c2.31-2.78,4.87-4.56,8.21-2.89c3.5,1.75,1.76,4.71,0.7,7.27
		c-0.76,1.82-2.03,3.71,2.46,5.2c3.28-17.63,10.65-4.02,18.56-1.6c-3.5-5.34-8.95-10.1-0.91-15.33c-9.57,3.5-9.63,3.54-14.71-5.45
		c-1.03-1.83-2.28-0.85-2.81-0.32C925.06,333.92,923.19,326.16,918.96,325.76z M770.67,128.6c-8.63,2.03-9.23,1.88-14.09-2.31
		c0.29,16.1,0.29,16.1-10.12,13.07c6.79,13.24,6.32,27.18,8.97,40.75C755.9,162.26,757.32,144.93,770.67,128.6z M706.22,328.37
		c1.99-1.32,3.6-2.47,5.28-3.49c13.79-8.39,20.39-22.03,26.34-36.11c0.98-2.32,3.24-5.2-0.9-7.01c-4.61-2.01-4.12,2.42-5.23,4.39
		c-7.35,13.02-11.01,28.73-26.62,35.63c-1.69,0.75-1.81,2.56-1.1,4.1C704.4,326.79,705.36,327.44,706.22,328.37z M996.46,123.64
		c-4.6,2.1-9.36,3.92-13.73,6.42c-2.48,1.42-7.82,3.25-5.92,5.93c3.56,5.03,0.59,13.33,8.35,15.9c2.62,0.87,6.12,0.32,5.03-2.27
		c-5.12-12.21,6.73-8.04,11.2-11.68C998.71,133.8,992.46,130.7,996.46,123.64z M1113.44,80.92c5.35-10.97,13.81-15.28,24.52-15.35
		c2.78-0.02,6.28,1.65,6.37-2.51c0.07-3.42-3.74-3.68-6.45-3.72c-9.44-0.15-18.88-0.06-29.4-0.06
		C1115.64,64.95,1107.06,73.34,1113.44,80.92z M949.6,199.26c-0.54-0.69-1.13-2.16-1.91-2.28c-1.37-0.19-3.61-0.04-4.17,0.82
		c-3.24,4.97-6.2,10.13-9,15.37c-0.59,1.1-1.62,3.44,0.7,3.95c7.21,1.58,15.27,9.09,20.91-2.58c1.08-2.23,5.7-3.22,3.28-6.52
		c-2.35-3.2-4.88-0.44-7.05,1.19c-1.47,1.11-2.71,3.22-4.91,1.22c-1.79-1.62-1.35-3.63-0.63-5.49
		C947.53,203.09,948.55,201.36,949.6,199.26z M915.52,221.88c5.74,5.96,13.06,10.96,0.48,16.5c12.05,5.38,13.51,5.16,22.05-2.75
		c-1.73-2.42-8.86,0.42-6.64-3.81c4.31-8.2-3.45-13.58-1.48-20.67C922.35,212.02,930.29,229.61,915.52,221.88z M925.91,253.55
		c14.16-2.54,27.28-4.9,40.59-7.28c-1.18-4.24-2.17-7.81-4.14-14.9c-4.23,12.12-9.93,13.32-19.33,10.68
		C937.39,240.46,928.5,242.99,925.91,253.55z M1070.67,81.53c6.13-12.37,6.03-12.28-1.27-19.27c-1.22-1.17-2.33-4.52-1.67-5.29
		c7.07-8.16,4.58-13.82-4.14-18.25c-0.42-0.21-0.64-0.79-1.3-1.64C1064.87,52.1,1062.15,67.44,1070.67,81.53z M1107.84,22.35
		c-14.87,8.37-15.22,9.76-9.06,39.21c-0.96-10.37,12.73-12.22,12.98-22.96c-5.48,0.68-8.24,6.33-14.64,4.98
		c2.2-4.17,3.91-7.63,5.81-10.98C1104.79,29.33,1109,27.18,1107.84,22.35z M753.37,243.91c1-7.75,3.79-14.85,1.67-22.45
		c-0.68-2.43-1.62-5-4.14-5.26c-2.37-0.24-5.15,1.62-5.22,3.99c-0.18,6.21-5.69,11.36-4.69,16.68
		C741.53,239.77,748.68,241.43,753.37,243.91z M872.58,350.32c0.16-9.55,1.83-14.81,8.41-16.24c7.26-1.57,3.54,7.23,7.85,9.35
		c-1.28-18.37-3.58-19.49-26.38-12.96C868.64,334.41,867.44,341.79,872.58,350.32z M1007.63,121.82c-1.39-5.31-0.72-9.32,4.72-9.44
		c2.63-0.06,5.44,2.7,5.31-2.57c-0.09-3.71-2.46-5.09-5.51-4.89c-6.97,0.46-14.18,0.16-20.57,3.7
		C993.93,116.86,1001.05,118.37,1007.63,121.82z M762.55,238.08c-4.03,16.54-4.45,33.82-8.99,50.39
		C766.14,273.52,762.44,255.48,762.55,238.08z M1008.82,224.85c-8.4-14.38-12.48-15.09-32.37-5.56
		c16.21-6.06,9.39,10.56,15.58,14.16c6.66-4.17-3.48-12.68,5.09-15.53C1002.71,216.07,1003.04,223.18,1008.82,224.85z
		 M1033.02,59.52c3.7,3.1,6.54-1.5,9.92-1.03c3.05,0.42,5.53,1.35,5.6,4.91c0.03,1.72,5.34,7.82,6.9,8.2
		c1.38,0.34,2.6,1.92,3.64-0.37C1047.36,50.64,1046.11,50.07,1033.02,59.52z M897.99,212.9c13.13-3.95,24.99-10.95,37.22-17.09
		C919.83,194.36,909.92,206.06,897.99,212.9z M1190.04,27.03c-11.58-4.89-19.82,0.58-28.35,0.42c-2.54-0.05-5.08,1.49-5.7,3.66
		c-1.01,3.55,3.4,2.17,4.7,3.97c1.4,1.93,3.13,3.63,4.71,5.44c1.59,1.83,3.21,4.03,5.82,1.66c2.39-2.18-0.12-3.44-1.33-4.76
		c-5.78-6.32-3.68-8.77,4.13-8.94C1178.3,28.38,1182.57,27.73,1190.04,27.03z M943.31,270.96c-9.9-3.89-19.64-8.32-30.57-7.43
		c-2.63,0.21-6.67,4.65-5.51,4.59c6.92-0.4,14.08,6.06,17.81,4.29C931.84,269.18,937.24,272.36,943.31,270.96z M936.66,316.01
		c4.97,0.2,12.83,6.24,13.65,1.1c1.48-9.32,6.72-4.49,10.38-5.05c3.32-0.51,7.12,2.43,10.11-1.63
		C957.49,299.55,947.71,312.16,936.66,316.01z M850.95,173.84c8.22-2.51,9.8-8.7,12.43-13.94c1.5-2.99,4.92-7.18-0.2-8.99
		c-4.47-1.58-8.54,0.98-9.42,6.51C852.94,162.51,852.02,167.59,850.95,173.84z M738.32,171.31c2.66,4.61,5.11,7.75,6.36,11.32
		c1.42,4.07,1.74,8.53,2.58,12.8c0.38,1.95,0.72,4.18,3.07,4.57c1.61,0.27,2.9-0.78,3.46-2.54
		C756.23,189.76,748.19,174.75,738.32,171.31z M897.1,262.44c8.31-6.6,19.92-1.64,22.72-13.64c0.72-3.08,0.65-6.87-3.12-4.45
		C910.03,248.63,901.3,251.02,897.1,262.44z M925.28,162.01c2.83-6.51,10.59-0.99,13.9-6.62c1.78-3.04,5.32-5.33,2.39-9.16
		c-4.15-5.41-5.57,1.33-8.02,2.39C928.46,150.84,924.71,154.78,925.28,162.01z M853.5,141.69c-5.43-4.46-3.7-14.16-13.24-13.93
		c-2.1,0.05-6.1,2.4-4.87,3.95C839.58,136.96,842.62,145.21,853.5,141.69z M923.17,166.78c-11.09-4.68-14.88-3.52-19.37,7.26
		C910.22,169.13,919.53,177.17,923.17,166.78z M721.71,238.98c8.73-8.45-1.62-11.07-4.07-11.65c-7.75-1.82-8.73,5.6-13.35,12.47
		C711.93,236.42,717.18,223.87,721.71,238.98z M814.03,172.02c-3.78,4.36,0.95,10.19-3.76,13.74c-1.46,1.1-3.62,2.79-1.66,4.78
		c1.22,1.24,3.61,2.16,5.29,1.93c1.98-0.27,3.09-2.48,2.99-4.64C816.66,182.58,818.53,176.86,814.03,172.02z M919.35,150.22
		c6.42,0.36,9.44-3.13,12.98-5.52c3.51-2.37,3.74-5.37,0.78-7.86c-2.92-2.45-5.7-0.31-6.52,2.5
		C925.4,143.46,921.93,145.76,919.35,150.22z M1041.54,158.15c4.24,5.38,8.48,8.79,14.87,10.05
		C1054.28,155.33,1053.13,154.53,1041.54,158.15z M1036,69.72c-3.26-3.05-7.64-3.31-9.77-7.23c-2.09-3.84-3.58,0.17-5.19,1.16
		c-3.24,2-2.76,4.29-0.35,6.62C1025.9,75.27,1030.68,72.5,1036,69.72z M733.7,213.81c-6.82,6.72-5.62,13.16,0.99,19.59
		C739.11,226.72,731.23,220.31,733.7,213.81z M1034.5,49.54c-1.43-3.81-3.78-6.66-7.34-7.71c-2.89-0.86-4.29,1.9-4.89,4.11
		c-1.11,4.06,3.04,5.74,4.57,8.65C1029.4,52.9,1031.97,51.21,1034.5,49.54z"/>
	<path d="M732.61,335.03c-1.94,0.22-3.88,0.44-5.82,0.66c5.39-11.24,16.8-16.18,25.33-24.13c1.58,2.76-3.75,5.11-1.01,7.19
		c2.35,1.79,5.39-0.39,7.62-1.9c11.88-8.03,23.69-16.16,35.4-24.44c2-1.41,5.19-2.83,2.98-7.24c-16.3,7.09-27.19,23.36-45.42,26.81
		c20.33-22.3,34.66-48.58,50.54-73.97c15.85-25.32,37.67-45.66,62.97-61.95c0.35,0.41,0.7,0.81,1.05,1.22
		c-1.17,3.24-6.38,3.61-5.82,7.97c8.15,4.62,13-8.68,21.17-3.66c0.42,4.97,0.84,9.94,1.25,14.9c-0.08,6.84-0.05,13.66,2.19,20.25
		c-3.22,5.17-6.44,10.35-9.66,15.52c-6.39,0.32-7.72-7.29-15.41-9.32c8.1,9.69,4.57,18.04,1.17,26.46
		c-1.92,4.75-3.55,9.61-5.3,14.42c0,0,0.4-0.47,0.4-0.47c-20.87,19.68-44.22,35.79-71.03,46.12c-14.92,5.75-28.6,14.51-44.55,17.79
		C737,328.03,733,330.09,732.61,335.03z M766.88,301.45c10.04-7.26,20.16-14.4,30.04-21.86c2.35-1.77,6.83-3.28,5.41-7.09
		c-6.49-17.37,3.89-11.01,11.19-7.84c2.93-5.13,2.24-10.78,6.2-14.8c2.62-2.66-1.34-5.43-2.01-4.62
		c-6.08,7.36-18.1,2.44-23.21,12.44C786.67,272.97,777.47,287.55,766.88,301.45z M813.54,239.04c7.29,2.98,14.51,4.44,10.13,14.3
		c-1.55,3.47,3.78,4.32,6.57,2.02c3.99-3.29,7.58-7.12,11.04-10.98c1.11-1.23,2.66-4.59-0.24-4.68c-17.13-0.55-1.19-8.81-3.5-13.51
		c-5.85,8.15-8.59,0.73-12.9-3.23C826.79,232.17,821.08,235.52,813.54,239.04z M820.32,259.68c-3.04,6.1-5.43,15.93-18.11,2.7
		c4.11,10.21,14.14,16.48,1.1,22.32c10.89-2.11,26.29,6.51,26.48-13.14C813.87,277.65,826.04,262.16,820.32,259.68z M860.54,214.14
		c5.76-7.6-1.85-15.79,2-22.83c-1.02-0.45-2.03-1.25-3.07-1.3c-12.69-0.58-19.74,11.93-13.54,23.98c3.37-2.44,2.06-9.21,8.39-8.95
		C860.01,205.26,857.82,210.97,860.54,214.14z M834.76,276.55c11.92-9.46,22.32-17.62,22.07-33
		C850.26,254.54,832.81,257.76,834.76,276.55z M853.91,208.84c-2.83,4.7-5.68,8.79-8.45,12.88c-1.43,2.11-4.93,6.64-1.1,9.62
		c1.52,1.18,2.97,5.63,6.68,2.63c3.33-2.7,7.22-4.48,7.03-10.11C857.88,218.45,852.97,214.78,853.91,208.84z M838.2,202.98
		c-4.86,4.49-11.91,6.73-12.36,14.39c5.02-1.63,3.47,8.05,9.36,5.31C845.74,217.77,837.63,209.79,838.2,202.98z M876.27,220.55
		c6.48-13.42,5.89-14.43-10.55-19.56C870.2,207.42,878,211.48,876.27,220.55z M815.25,288.43c-12.22-0.91-18.27,6.5-24.68,13.28
		C799.32,299.05,807.7,295.76,815.25,288.43z"/>
	<path d="M672.21,419.22c4.38,1.46,1.07,7.47,6.49,8.48c4.06-8.33-0.93-15.23-5.13-23.83c9.07,5.06,8.53,13.23,10.86,19.54
		c1.28,3.48-3.29,6.95-6.44,6.71C671.62,429.62,671.93,424.3,672.21,419.22z"/>
	<path d="M230.19,516.68c11.93,6.19,16.12,17.95,20.91,29.31c-7.89-8.97-13.05-20.04-21.72-28.39
		C229.64,517.29,229.91,516.98,230.19,516.68z"/>
	<path d="M707.47,404.48c-3.05-3.16,0.32-6.97-1.24-11.68c-2.5,4.32-4.33,7.47-6.16,10.63c-1.7-6.36,1.08-10.52,5.57-13.64
		c1.22-0.85,3.57-0.77,4.21,0.99C711.64,395.64,710.52,400.19,707.47,404.48z"/>
	<path d="M383.88,571.49c-1.84-13.11-7.01-25.54-8.07-38.8C379.77,545.36,384.95,557.79,383.88,571.49z"/>
</g>
</svg>
